<svg width="39" height="54" viewBox="0 0 39 54" fill="none" xmlns="http://www.w3.org/2000/svg">
<path d="M21.595 28.2186L11.7872 18.5047C9.05014 15.7619 4.48838 15.7619 1.75132 18.5047C1.52323 18.7333 1.52323 18.9618 1.52323 19.1904C1.52323 19.419 1.63727 19.6475 1.75132 19.8761L11.5591 29.59C12.9276 30.9614 14.7523 31.6471 16.5771 31.6471C18.5158 31.6471 20.2265 30.8471 21.595 29.59C21.8231 29.3615 21.8231 29.1329 21.8231 28.9043C21.8231 28.7901 21.8231 28.6758 21.8231 28.6758C21.8231 28.4472 21.709 28.3329 21.595 28.2186ZM10.5327 19.7618L19.6562 28.7901C17.6034 30.2757 14.7523 30.0471 12.9276 28.2186L3.80411 19.1904C5.85691 17.819 8.70801 18.0476 10.5327 19.7618ZM38.7016 26.2759C38.7016 26.1616 38.7016 26.0473 38.7016 25.8187C38.5876 24.1045 37.5612 22.7331 35.9645 21.5903C34.596 20.6761 33.9118 19.6475 33.9118 18.7333C33.9118 17.819 34.482 17.019 35.5084 16.1048C35.7365 15.8762 36.0786 15.6477 36.3067 15.4191C36.4207 15.3048 36.5348 15.1905 36.6488 14.962C36.7629 14.6191 36.6488 14.2763 36.5348 14.0477C35.2803 12.4478 33.4556 11.5335 31.6309 11.5335C30.6045 11.5335 29.6921 11.7621 28.7798 12.3335C28.5517 12.4478 28.4376 12.5621 28.2095 12.5621C27.5253 12.5621 27.1832 11.7621 26.841 10.8478C26.727 10.505 26.4989 10.3907 26.2708 10.2764C25.9287 10.1621 25.7006 10.2764 25.4725 10.505C24.5601 11.305 23.9899 12.3335 23.9899 13.4763C23.9899 14.7334 24.5601 15.9905 25.7006 17.019C25.5865 17.3619 25.5865 17.7047 25.5865 18.0476L10.6468 2.73383C9.27823 1.47673 7.45352 0.676758 5.51477 0.676758C3.69007 0.676758 1.86536 1.36245 0.496834 2.73383C0.154701 3.07667 0.154701 3.64808 0.496834 3.99093L22.0512 25.8187C23.7618 27.533 25.8146 28.4472 27.7534 28.4472C27.8674 28.4472 27.9815 28.4472 28.0955 28.4472L13.4979 43.3038C10.7608 46.1609 10.7608 50.6178 13.6119 53.3606C13.7259 53.4749 13.954 53.5892 14.0681 53.5892C14.0681 53.5892 14.1821 53.5892 14.2962 53.5892C14.5243 53.5892 14.7523 53.4749 14.9804 53.3606L36.1926 31.7614C37.4471 30.6186 38.7016 28.5615 38.7016 26.2759ZM34.9381 30.5043L23.4197 42.2753V42.3896L14.5243 51.5321C13.0417 49.475 13.2698 46.618 15.0945 44.7895L32.5432 26.9615C32.8854 26.6187 32.8854 26.0473 32.5432 25.7044C32.4292 25.5902 32.2011 25.4759 31.973 25.3616H31.859C31.6309 25.3616 31.4028 25.4759 31.2887 25.5902C30.3764 26.3901 29.2359 26.733 28.0955 26.733C26.4989 26.733 24.9023 26.0473 23.6478 24.6759L2.54963 3.5338C3.46198 2.96239 4.48838 2.61955 5.51477 2.61955C6.8833 2.61955 8.25183 3.19095 9.27823 4.21949L27.2972 22.3903C27.5253 22.6188 27.7534 22.6188 27.9815 22.6188C28.2095 22.6188 28.4376 22.5046 28.6657 22.3903C29.0079 22.0474 29.0079 21.476 28.6657 21.1332C27.6393 19.9904 27.2972 18.3904 27.7534 16.9048C27.8674 16.5619 27.6393 16.1048 27.2972 15.8762C26.6129 15.5334 25.9287 14.6191 25.9287 13.7049C25.9287 13.4763 25.9287 13.362 25.9287 13.2477C26.4989 14.162 27.4112 14.7334 28.3236 14.7334C28.7798 14.7334 29.35 14.6191 29.8062 14.2763C30.8326 13.7049 31.859 13.5906 32.8854 13.9334C33.4556 14.162 34.0258 14.3906 34.596 14.8477C32.9994 16.1048 32.2011 17.4762 32.2011 18.9618C32.2011 20.5618 33.2275 22.0474 35.0522 23.3045C36.1926 24.1045 36.8769 25.0188 36.9909 26.1616C36.9909 27.7615 35.9645 29.4757 34.9381 30.5043Z" fill="#202B54"/>
</svg>
