<svg width="64" height="78" viewBox="0 0 64 78" fill="none" xmlns="http://www.w3.org/2000/svg">
<path fill-rule="evenodd" clip-rule="evenodd" d="M31.7223 77.1166C31.7223 77.1166 63.1984 56.0848 63.1984 31.5477C63.1984 23.1807 59.8822 15.1564 53.9793 9.24011C48.0763 3.32377 40.0703 0 31.7223 0C23.3743 0 15.3682 3.32377 9.46525 9.24011C3.56232 15.1564 0.246094 23.1807 0.246094 31.5477C0.246094 56.0848 31.7223 77.1166 31.7223 77.1166ZM42.7364 31.4766C42.7364 37.5609 37.8041 42.4933 31.7198 42.4933C25.6355 42.4933 20.7031 37.5609 20.7031 31.4766C20.7031 25.3923 25.6355 20.46 31.7198 20.46C37.8041 20.46 42.7364 25.3923 42.7364 31.4766Z" fill="#202B54"/>
</svg>
